# 3ds Max Wavefront OBJ Exporter v0.97b - (c)2007 guruware
# File Created: 03.04.2019 03:25:44

mtllib diamond-brilliantcut.mtl

#
# object DiamondBrilliantCut
#

v  83.5207 51.3358 -54.7513
v  71.2800 50.0000 -70.0469
v  71.2800 54.6773 -70.0469
v  83.5207 53.3413 -54.7513
v  -54.7516 51.3358 -83.5212
v  -70.0471 50.0000 -71.2806
v  -70.0471 54.6773 -71.2806
v  -54.7516 53.3413 -83.5212
v  -97.7733 51.3358 -20.3435
v  -99.9333 50.0000 -0.8723
v  -99.9333 54.6773 -0.8723
v  -97.7733 53.3413 -20.3435
v  -83.5207 51.3358 54.7513
v  -71.2800 50.0000 70.0469
v  -71.2800 54.6773 70.0469
v  -83.5207 53.3413 54.7513
v  -20.3429 51.3358 97.7734
v  -0.8718 50.0000 99.9336
v  -0.8718 54.6773 99.9336
v  -20.3429 53.3413 97.7734
v  54.7516 51.3358 83.5212
v  70.0471 50.0000 71.2806
v  70.0471 54.6773 71.2806
v  54.7516 53.3413 83.5212
v  97.7733 51.3358 20.3435
v  99.9333 50.0000 0.8723
v  99.9333 54.6773 0.8723
v  97.7733 53.3413 20.3435
v  -39.0727 50.0000 92.0505
v  -13.0808 -19.3681 30.8167
v  37.4609 50.0000 92.7185
v  12.5412 -19.3681 31.0403
v  92.0504 50.0000 39.0733
v  30.8167 -19.3681 13.0810
v  92.7181 50.0000 -37.4605
v  31.0402 -19.3681 -12.5410
v  0.8718 50.0000 -99.9336
v  20.3429 51.3358 -97.7734
v  39.0728 50.0000 -92.0505
v  13.0808 -19.3681 -30.8167
v  -37.4609 50.0000 -92.7185
v  -12.5412 -19.3681 -31.0403
v  -92.0504 50.0000 -39.0733
v  -30.8166 -19.3681 -13.0810
v  -92.7181 50.0000 37.4605
v  -31.0402 -19.3681 12.5410
v  -18.6340 51.3358 -98.1137
v  -37.4609 54.6773 -92.7185
v  -18.6340 53.3413 -98.1137
v  56.2004 51.3358 -82.5528
v  39.0728 54.6773 -92.0505
v  56.2004 53.3413 -82.5528
v  -56.2004 51.3358 82.5528
v  -39.0727 54.6773 92.0505
v  -56.2004 53.3413 82.5528
v  82.5528 51.3358 56.2010
v  0.0000 -54.6908 -0.0000
v  98.1133 51.3358 -18.6336
v  -82.5528 51.3358 -56.2010
v  -98.1133 51.3358 18.6336
v  18.6340 51.3358 98.1137
v  70.4688 74.6273 27.1520
v  41.0529 83.3228 41.7759
v  28.6780 74.6273 64.4300
v  58.5686 83.3228 0.5113
v  70.9800 74.6273 -26.0312
v  29.9120 74.6273 -63.9657
v  41.7755 83.3228 -41.0528
v  0.8718 54.6773 -99.9336
v  -28.6780 74.6273 -64.4300
v  0.5110 83.3228 -58.5687
v  -70.4688 74.6273 -27.1520
v  -41.0529 83.3228 -41.7759
v  -58.5686 83.3228 -0.5113
v  -70.9800 74.6273 26.0312
v  -41.7755 83.3228 41.0528
v  -29.9120 74.6273 63.9658
v  -0.5109 83.3228 58.5687
v  18.6340 53.3413 98.1137
v  37.4609 54.6773 92.7185
v  82.5528 53.3413 56.2010
v  92.0504 54.6773 39.0733
v  98.1133 53.3413 -18.6336
v  92.7181 54.6773 -37.4605
v  20.3429 53.3413 -97.7734
v  -82.5528 53.3413 -56.2010
v  -92.0504 54.6773 -39.0733
v  -98.1133 53.3413 18.6336
v  -92.7181 54.6773 37.4605
# 89 vertices

vn 0.7808 0.0000 -0.6248
vn -0.6248 0.0000 -0.7808
vn -0.9939 0.0000 -0.1103
vn -0.7808 0.0000 0.6248
vn -0.1103 0.0000 0.9939
vn 0.6248 0.0000 0.7808
vn 0.9939 0.0000 0.1103
vn -0.1467 -0.6881 0.7107
vn 0.3988 -0.6881 0.6062
vn 0.7107 -0.6881 0.1466
vn 0.6062 -0.6881 -0.3988
vn 0.1467 -0.6881 -0.7107
vn -0.3988 -0.6881 -0.6062
vn -0.7107 -0.6881 -0.1466
vn -0.6062 -0.6881 0.3988
vn -0.2755 0.0000 -0.9613
vn 0.4850 0.0000 -0.8745
vn -0.4850 0.0000 0.8745
vn 0.5992 -0.6881 0.4093
vn 0.5070 -0.6905 0.5159
vn 0.7131 -0.6881 -0.1342
vn 0.7233 -0.6905 0.0063
vn 0.4093 -0.6881 -0.5992
vn 0.5159 -0.6905 -0.5070
vn -0.1342 -0.6881 -0.7131
vn 0.0063 -0.6905 -0.7233
vn -0.5992 -0.6881 -0.4093
vn -0.5070 -0.6905 -0.5159
vn -0.7131 -0.6881 0.1342
vn -0.7233 -0.6905 -0.0063
vn -0.4093 -0.6881 0.5992
vn -0.5159 -0.6905 0.5070
vn 0.1342 -0.6881 0.7131
vn -0.0063 -0.6905 0.7233
vn 0.3793 0.8218 0.4252
vn 0.5693 0.8221 0.0055
vn 0.3866 0.8218 -0.4185
vn 0.0045 0.8221 -0.5693
vn -0.3793 0.8218 -0.4252
vn -0.5693 0.8221 -0.0055
vn -0.3866 0.8218 0.4185
vn -0.0045 0.8221 0.5693
vn 0.1757 0.8831 0.4350
vn 0.3470 0.9262 0.1473
vn 0.3483 0.9268 -0.1407
vn 0.1825 0.8842 -0.4301
vn -0.1757 0.8831 -0.4350
vn -0.3470 0.9262 -0.1473
vn -0.3483 0.9268 0.1407
vn -0.1825 0.8842 0.4301
vn -0.3252 0.8172 0.4759
vn -0.1140 0.8259 0.5522
vn 0.1041 0.8264 0.5533
vn 0.3161 0.8181 0.4805
vn 0.5187 0.7781 0.3544
vn 0.6296 0.7660 0.1299
vn 0.6327 0.7652 -0.1191
vn 0.5260 0.7769 -0.3461
vn 0.3252 0.8172 -0.4759
vn 0.1140 0.8259 -0.5522
vn -0.1041 0.8264 -0.5533
vn -0.3161 0.8181 -0.4805
vn -0.5187 0.7781 -0.3544
vn -0.6296 0.7660 -0.1299
vn -0.6327 0.7652 0.1191
vn -0.5260 0.7769 0.3461
vn 0.0000 1.0000 -0.0000
vn 0.2755 0.0000 0.9613
vn 0.8745 0.0000 0.4849
vn -0.9613 0.0000 0.2755
vn -0.8745 0.0000 -0.4849
vn 0.1103 0.0000 -0.9939
vn 0.9613 0.0000 -0.2755
vn -0.9957 0.0000 0.0929
vn -0.8829 0.0000 0.4696
vn -0.9564 0.0000 -0.2922
vn -0.7697 0.0000 -0.6384
vn -0.4696 0.0000 -0.8829
vn -0.0929 0.0000 -0.9957
vn 0.2922 0.0000 -0.9564
vn 0.6384 0.0000 -0.7697
vn 0.8829 0.0000 -0.4696
vn 0.9957 0.0000 -0.0929
vn 0.9564 0.0000 0.2922
vn 0.7697 0.0000 0.6384
vn 0.4696 0.0000 0.8829
vn 0.0929 0.0000 0.9957
vn -0.2922 0.0000 0.9564
vn -0.6384 0.0000 0.7697
# 89 vertex normals

g DiamondBrilliantCut
usemtl material_1
s off
f 1//1 2//1 3//1 4//1 
f 5//2 6//2 7//2 8//2 
f 9//3 10//3 11//3 12//3 
f 13//4 14//4 15//4 16//4 
f 17//5 18//5 19//5 20//5 
f 21//6 22//6 23//6 24//6 
f 25//7 26//7 27//7 28//7 
f 18//8 17//8 29//8 30//8 
f 22//9 21//9 31//9 32//9 
f 26//10 25//10 33//10 34//10 
f 2//11 1//11 35//11 36//11 
f 37//12 38//12 39//12 40//12 
f 6//13 5//13 41//13 42//13 
f 10//14 9//14 43//14 44//14 
f 14//15 13//15 45//15 46//15 
f 47//16 41//16 48//16 49//16 
f 50//17 39//17 51//17 52//17 
f 53//18 29//18 54//18 55//18 
f 33//19 56//19 22//19 34//19 
f 22//20 32//20 57//20 34//20 
f 35//21 58//21 26//21 36//21 
f 26//22 34//22 57//22 36//22 
f 39//23 50//23 2//23 40//23 
f 2//24 36//24 57//24 40//24 
f 41//25 47//25 37//25 42//25 
f 37//26 40//26 57//26 42//26 
f 43//27 59//27 6//27 44//27 
f 6//28 42//28 57//28 44//28 
f 45//29 60//29 10//29 46//29 
f 10//30 44//30 57//30 46//30 
f 29//31 53//31 14//31 30//31 
f 14//32 46//32 57//32 30//32 
f 31//33 61//33 18//33 32//33 
f 18//34 30//34 57//34 32//34 
f 62//35 63//35 64//35 23//35 
f 65//36 62//36 27//36 66//36 
f 3//37 67//37 68//37 66//37 
f 69//38 70//38 71//38 67//38 
f 7//39 72//39 73//39 70//39 
f 74//40 72//40 11//40 75//40 
f 76//41 75//41 15//41 77//41 
f 78//42 77//42 19//42 64//42 
f 63//43 78//43 64//43 
f 65//44 63//44 62//44 
f 68//45 65//45 66//45 
f 71//46 68//46 67//46 
f 73//47 71//47 70//47 
f 74//48 73//48 72//48 
f 76//49 74//49 75//49 
f 78//50 76//50 77//50 
f 15//51 55//51 54//51 77//51 
f 54//52 20//52 19//52 77//52 
f 19//53 79//53 80//53 64//53 
f 80//54 24//54 23//54 64//54 
f 23//55 81//55 82//55 62//55 
f 82//56 28//56 27//56 62//56 
f 27//57 83//57 84//57 66//57 
f 84//58 4//58 3//58 66//58 
f 3//59 52//59 51//59 67//59 
f 51//60 85//60 69//60 67//60 
f 69//61 49//61 48//61 70//61 
f 48//62 8//62 7//62 70//62 
f 7//63 86//63 87//63 72//63 
f 87//64 12//64 11//64 72//64 
f 11//65 88//65 89//65 75//65 
f 89//66 16//66 15//66 75//66 
f 78//67 63//67 65//67 68//67 
f 78//67 68//67 71//67 73//67 
f 78//67 73//67 74//67 76//67 
f 61//68 31//68 80//68 79//68 
f 56//69 33//69 82//69 81//69 
f 60//70 45//70 89//70 88//70 
f 59//71 43//71 87//71 86//71 
f 38//72 37//72 69//72 85//72 
f 58//73 35//73 84//73 83//73 
f 88//74 11//74 10//74 60//74 
f 16//75 89//75 45//75 13//75 
f 12//76 87//76 43//76 9//76 
f 86//77 7//77 6//77 59//77 
f 8//78 48//78 41//78 5//78 
f 49//79 69//79 37//79 47//79 
f 85//80 51//80 39//80 38//80 
f 52//81 3//81 2//81 50//81 
f 4//82 84//82 35//82 1//82 
f 83//83 27//83 26//83 58//83 
f 28//84 82//84 33//84 25//84 
f 81//85 23//85 22//85 56//85 
f 24//86 80//86 31//86 21//86 
f 79//87 19//87 18//87 61//87 
f 20//88 54//88 29//88 17//88 
f 55//89 15//89 14//89 53//89 
# 83 polygons - 8 triangles

